# xmcd
#
# Track frame offsets: 
#        182
#        13405
#        28027
#        43255
#        58307
#        69455
#        81360
#        95100
#        107880
#        120757
#        134537
#        147635
#        160535
#        175062
#        186990
#        198225
#        212057
#        225232
#        238337
#        249757
#
# Disc length: 3505 seconds
#
# Revision: 5
# Processed by: cddbd v1.5.2PL0 Copyright (c) Steve Scherf et al.
# Submitted via: ExactAudioCopy v1.0b6
#
DISCID=220daf14
DTITLE=Muddy Waters - Muddy Waters On Chess Vol. 2 1951-1959
DYEAR=1951
DGENRE=Blues
TTITLE0=She Moves Me (1951)
TTITLE1=Still A Fool (1951)
TTITLE2=They Call Me Muddy Waters (1951)
TTITLE3=Standing Around Crying (1952)
TTITLE4=She's All Right (1952)
TTITLE5=My Life Is Ruined (1952)
TTITLE6=I Want You To Love Me (1953)
TTITLE7=(I'm Your) Hoochie Coochie Man (1954)
TTITLE8=I Just Want To Make Love To You (1954)
TTITLE9=I'm Ready (1954)
TTITLE10=Mannish Boy (1955)
TTITLE11=Forty Days And Forty Nights (1956)
TTITLE12=Just To Be With You (1956)
TTITLE13=Walking Thru The Park (1958)
TTITLE14=Crawlin' Kingsnake (1959)
TTITLE15=Lonesome Road Blues (1959)
TTITLE16=Mopper's Blues (1959)
TTITLE17=Southbound Train (1959)
TTITLE18=Just A Dream (On My Mind) (1959)
TTITLE19=I Feel So Good (1959)
EXTD=
EXTT0=
EXTT1=
EXTT2=
EXTT3=
EXTT4=
EXTT5=
EXTT6=
EXTT7=
EXTT8=
EXTT9=
EXTT10=
EXTT11=
EXTT12=
EXTT13=
EXTT14=
EXTT15=
EXTT16=
EXTT17=
EXTT18=
EXTT19=
PLAYORDER=
